<svg width="683" height="683" viewBox="0 0 683 683" fill="none" xmlns="http://www.w3.org/2000/svg">
<path d="M383.933 1.24274C358.333 4.17608 328.467 13.1094 301.667 25.7761C284.067 34.0427 273.933 42.8427 268.333 54.1761C255.667 80.1761 272.867 148.843 304.733 199.376L309.133 206.309L304.867 207.643C296.067 210.443 274.333 215.909 274.067 215.509C273.8 215.243 272.6 209.643 271.267 203.109C261.667 154.843 233.4 103.376 209.667 90.7094C192.2 81.3761 178.2 82.4428 152.6 94.9761C130.2 106.043 114.6 117.109 97.2667 134.443C63.8 167.776 43.2667 213.243 37.4 266.709C35.5333 283.243 35.5333 318.843 37.4 335.509C45.9333 414.843 86.8667 475.376 153.8 507.909C170.467 516.043 181.667 518.443 192.733 516.043C210.333 512.443 219.667 504.443 237 478.576C254.733 452.043 268.733 420.309 273.267 396.309L274.867 388.176L285.133 391.243C290.733 392.976 298.067 395.109 301.4 396.043L307.667 397.776L300.2 410.443C285.8 435.109 274.733 462.709 268.467 489.909C265.533 502.709 264.733 509.109 264.733 523.109C264.6 539.376 264.867 540.843 268.333 547.909C273.933 559.376 284.067 568.043 301.667 576.443C371.267 609.509 437.533 610.576 503.533 579.776C529.133 567.776 539 558.709 544.067 542.309C547.133 532.443 547.267 525.109 544.467 506.709C540.333 478.176 531.4 449.776 517.8 421.243C513.8 412.976 510.6 405.643 510.6 405.243C510.6 404.709 515.267 403.243 521 401.909C583.133 387.376 625.667 351.909 641.933 301.109C644.867 292.309 645.667 286.976 645.8 277.109C645.933 264.709 645.8 264.309 641.267 257.776C634.733 248.309 614.467 227.643 603.4 219.109C582.733 203.376 555.667 190.443 531.533 184.843C521.4 182.443 518.6 181.376 519.133 179.776C519.533 178.709 523.133 169.243 527.133 158.976C535.533 137.509 541.4 116.043 544.467 95.5094C547.267 77.1094 547.133 69.7761 544.067 59.9094C539 43.5094 529.133 34.4427 503.533 22.4427C464.2 4.17608 423.133 -3.15726 383.933 1.24274ZM390.6 81.5094C390.6 117.909 390.733 119.376 393.667 125.109C398.067 133.909 404.067 137.509 413.4 136.843C422.067 136.176 427.933 132.576 431.133 125.909C433 122.043 433.267 115.643 433.267 83.2428C433.267 53.6428 433.667 45.1094 435 45.1094C438.467 45.1094 458.333 50.4427 467.933 53.9094C480.333 58.3094 500.2 68.1761 502.467 70.9761C505.933 75.1094 500.6 105.509 492.067 130.843C486.733 146.709 473.8 176.576 471.8 177.909C471.133 178.309 464.733 179.243 457.533 179.909C438.733 181.776 401.133 187.376 377 191.909C365.533 194.043 355.4 195.776 354.6 195.776C349.933 195.776 323.533 146.843 316.067 124.443C310.733 108.443 306.333 86.3094 306.867 77.9094L307.267 71.1094L315.267 66.8428C335 56.1761 371.4 44.7094 388.333 43.9094C390.467 43.7761 390.6 46.4428 390.6 81.5094ZM194.2 133.109C212.867 154.709 226.6 188.709 232.6 229.376C235.533 248.576 235.4 363.109 232.6 381.109C228.6 404.976 218.333 429.643 201.8 454.576C191.667 469.776 187.533 474.443 184.333 474.443C177 474.443 147.4 455.909 132.6 442.176C121.8 432.176 107 413.643 108.467 412.043C109 411.509 123.4 402.709 140.333 392.443C174.333 371.909 177.267 369.243 177.267 358.843C177.267 346.309 170.067 338.443 157.667 337.376L150.6 336.709L120.867 354.443C104.6 364.176 90.8667 372.443 90.2 372.709C88.7333 373.643 86.6 367.109 82.8667 349.776C79.6667 334.976 79.4 331.376 79.4 301.109C79.4 270.843 79.6667 267.243 82.8667 252.443C86.6 235.109 88.7333 228.576 90.2 229.509C90.8667 229.776 104.6 238.043 120.867 247.776L150.6 265.509L157.667 264.843C170.067 263.776 177.267 255.909 177.267 243.376C177.267 232.976 174.333 230.309 140.333 209.776C123.4 199.509 109 190.709 108.467 190.176C106.2 187.776 128.067 162.843 142.067 151.643C157.933 138.976 183.267 125.776 187.933 127.643C189.133 128.043 191.933 130.576 194.2 133.109ZM499.267 222.443C535.667 226.576 571 243.776 595.667 269.509C605 279.376 604.867 278.443 599 294.443C586.867 327.109 555.933 349.909 509.267 360.576C467.4 370.043 390.6 370.043 338.733 360.443C323.8 357.643 299 351.376 287.267 347.376L277.933 344.176L277.533 302.043L277.267 259.909L288.2 256.576C330.333 244.043 387.533 232.176 439.267 225.243C471.667 220.843 481 220.443 499.267 222.443ZM383.267 409.109C392.067 409.909 413.933 410.443 431.933 410.309L464.6 410.043L473.4 427.243C489.133 458.309 499.133 488.176 502.733 516.043C504.067 526.843 504.067 529.376 502.6 531.109C499.8 534.443 478.6 544.709 465.4 549.109C456.067 552.309 436.867 557.109 433.8 557.109C433.533 557.109 433.267 539.909 433.267 518.976C433.267 486.576 433 480.176 431.133 476.309C427.933 469.643 422.067 466.043 413.4 465.376C404.067 464.709 398.067 468.309 393.667 477.109C390.733 482.843 390.6 484.309 390.6 520.843V558.576L384.333 557.776C363.533 554.976 333.4 545.109 315.267 535.376L307.267 531.109L307.533 520.309C308.067 493.376 323 453.109 345.267 418.576L353.4 406.176L360.333 406.976C364.2 407.376 374.467 408.443 383.267 409.109Z" fill="url(#paint0_linear_4_29)"/>
<path d="M512.467 266.576C506.467 268.309 499.133 276.976 497.933 283.643C495.933 295.376 506.333 307.776 518.2 307.776C530.867 307.776 538.733 300.443 539.667 287.909C540.333 278.576 536.733 272.576 527.933 268.043C521.667 264.843 519 264.709 512.467 266.576Z" fill="url(#paint1_linear_4_29)"/>
<defs>
<linearGradient id="paint0_linear_4_29" x1="206.5" y1="45.5" x2="489.5" y2="454" gradientUnits="userSpaceOnUse">
<stop offset="0.0081688" stop-color="#4A63D9" stop-opacity="0.940658"/>
<stop offset="0.354167" stop-color="#694DD1" stop-opacity="0.895833"/>
<stop offset="0.65625" stop-color="#AD60BA" stop-opacity="0.934659"/>
<stop offset="1" stop-color="#DB7180"/>
</linearGradient>
<linearGradient id="paint1_linear_4_29" x1="509.444" y1="268.567" x2="529.526" y2="296.945" gradientUnits="userSpaceOnUse">
<stop offset="0.0081688" stop-color="#4A63D9" stop-opacity="0.940658"/>
<stop offset="0.354167" stop-color="#694DD1" stop-opacity="0.895833"/>
<stop offset="0.65625" stop-color="#AD60BA" stop-opacity="0.934659"/>
<stop offset="1" stop-color="#DB7180"/>
</linearGradient>
</defs>
</svg>
