<?xml version="1.0" standalone="no"?>
<!DOCTYPE svg PUBLIC "-//W3C//DTD SVG 20010904//EN"
 "http://www.w3.org/TR/2001/REC-SVG-20010904/DTD/svg10.dtd">
<svg version="1.0" xmlns="http://www.w3.org/2000/svg"
 width="512.000000pt" height="512.000000pt" viewBox="0 0 512.000000 512.000000"
 preserveAspectRatio="xMidYMid meet">

<g transform="translate(0.000000,512.000000) scale(0.100000,-0.100000)"
stroke="none">
<path d="M2880 4809 c-192 -22 -416 -89 -617 -184 -132 -62 -208 -128 -250
-213 -95 -195 34 -710 273 -1089 l33 -52 -32 -10 c-66 -21 -229 -62 -231 -59
-2 2 -11 44 -21 93 -72 362 -284 748 -462 843 -131 70 -236 62 -428 -32 -168
-83 -285 -166 -415 -296 -251 -250 -405 -591 -449 -992 -14 -124 -14 -391 0
-516 64 -595 371 -1049 873 -1293 125 -61 209 -79 292 -61 132 27 202 87 332
281 133 199 238 437 272 617 l12 61 77 -23 c42 -13 97 -29 122 -36 l47 -13
-56 -95 c-108 -185 -191 -392 -238 -596 -22 -96 -28 -144 -28 -249 -1 -122 1
-133 27 -186 42 -86 118 -151 250 -214 522 -248 1019 -256 1514 -25 192 90
266 158 304 281 23 74 24 129 3 267 -31 214 -98 427 -200 641 -30 62 -54 117
-54 120 0 4 35 15 78 25 466 109 785 375 907 756 22 66 28 106 29 180 1 93 0
96 -34 145 -49 71 -201 226 -284 290 -155 118 -358 215 -539 257 -76 18 -97
26 -93 38 3 8 30 79 60 156 63 161 107 322 130 476 21 138 20 193 -3 267 -38
123 -112 191 -304 281 -295 137 -603 192 -897 159z m50 -602 c0 -273 1 -284
23 -327 33 -66 78 -93 148 -88 65 5 109 32 133 82 14 29 16 77 16 320 0 222 3
286 13 286 26 0 175 -40 247 -66 93 -33 242 -107 259 -128 26 -31 -14 -259
-78 -449 -40 -119 -137 -343 -152 -353 -5 -3 -53 -10 -107 -15 -141 -14 -423
-56 -604 -90 -86 -16 -162 -29 -168 -29 -35 0 -233 367 -289 535 -40 120 -73
286 -69 349 l3 51 60 32 c148 80 421 166 548 172 16 1 17 -19 17 -282z m-1473
-387 c140 -162 243 -417 288 -722 22 -144 21 -1003 0 -1138 -30 -179 -107
-364 -231 -551 -76 -114 -107 -149 -131 -149 -55 0 -277 139 -388 242 -81 75
-192 214 -181 226 4 4 112 70 239 147 255 154 277 174 277 252 0 94 -54 153
-147 161 l-53 5 -223 -133 c-122 -73 -225 -135 -230 -137 -11 -7 -27 42 -55
172 -24 111 -26 138 -26 365 0 227 2 254 26 365 28 130 44 179 55 172 5 -2
108 -64 230 -137 l223 -133 53 5 c93 8 147 67 147 161 0 78 -22 98 -277 252
-127 77 -235 143 -239 147 -17 18 147 205 252 289 119 95 309 194 344 180 9
-3 30 -22 47 -41z m2288 -670 c273 -31 538 -160 723 -353 70 -74 69 -67 25
-187 -91 -245 -323 -416 -673 -496 -314 -71 -890 -71 -1279 1 -112 21 -298 68
-386 98 l-70 24 -3 316 -2 316 82 25 c316 94 745 183 1133 235 243 33 313 36
450 21z m-870 -1400 c66 -6 230 -10 365 -9 l245 2 66 -129 c118 -233 193 -457
220 -666 10 -81 10 -100 -1 -113 -21 -25 -180 -102 -279 -135 -70 -24 -214
-60 -237 -60 -2 0 -4 129 -4 286 0 243 -2 291 -16 320 -24 50 -68 77 -133 82
-70 5 -115 -22 -148 -88 -22 -43 -23 -54 -23 -328 l0 -283 -47 6 c-156 21
-382 95 -518 168 l-60 32 2 81 c4 202 116 504 283 763 l61 93 52 -6 c29 -3
106 -11 172 -16z"/>
<path d="M3844 2819 c-45 -13 -100 -78 -109 -128 -15 -88 63 -181 152 -181 95
0 154 55 161 149 5 70 -22 115 -88 149 -47 24 -67 25 -116 11z"/>
</g>
</svg>
